<svg xmlns="http://www.w3.org/2000/svg" version="1.1" xmlns:xlink="http://www.w3.org/1999/xlink" width="512" height="512" x="0" y="0" viewBox="0 0 512 512" style="enable-background:new 0 0 512 512" xml:space="preserve" fill-rule="evenodd" class=""><g><path fill="#00a850" d="M11.36 417.976c-3.686-11.792-5.674-24.334-5.674-37.336v-36.107h.3V166.774h.298v-36.107c0-60.302 42.746-110.688 99.532-122.412l.767-.156a125.022 125.022 0 0 1 24.538-2.418h249.673c55.707 0 102.94 36.61 118.986 87.09l.177.56c3.687 11.792 5.675 24.334 5.675 37.336v36.107h-.3v177.759h-.298v36.107c0 68.978-55.932 124.981-124.837 124.986H130.524c-8.458 0-16.72-.844-24.708-2.452l-.669-.136c-44.313-9.176-80.067-41.9-93.61-84.501z" opacity="1" data-original="#00a850"></path><path fill="#ffe42c" d="M360.078 321.776c56.658-36.174 103.02-65.952 103.02-66.163 0-.822-206.149-131.936-207.44-131.936-1.285 0-207.496 131.114-207.496 131.936 0 .9 206.4 132.225 207.59 132.084.72-.078 47.668-29.746 104.326-65.92zM256.072 167.541c48.617 0 88.088 39.471 88.088 88.087s-39.471 88.088-88.088 88.088-88.087-39.471-88.087-88.088 39.47-88.087 88.087-88.087z" opacity="1" data-original="#ffe42c"></path><path fill="#003687" d="M340.221 281.741c-11.142 35.885-44.623 61.975-84.149 61.975-48.616 0-88.087-39.471-88.087-88.088 0-7.399.916-14.587 2.639-21.462.125-.148.258-.258.391-.328 4.886-2.616 43.543-3.782 58.811-1.778 38.453 5.05 73.414 19.935 103.294 43.966zm-84.391 43.394c.117 0 .29.102.391.212.243.297.306.18.141-.25-.117-.314-.086-.4.243-.643l.376-.282-.447-.008c-.368 0-.47-.07-.54-.352-.047-.188-.133-.344-.196-.344s-.148.156-.195.344c-.07.282-.18.352-.54.352l-.455.008.384.282c.32.235.352.329.243.627-.188.5-.173.548.117.29.14-.126.352-.236.478-.236zm44.498-2.012c.36.266.689.478.728.478.047 0-.04-.353-.188-.783-.149-.439-.274-.807-.274-.815 0-.015.313-.242.697-.5l.704-.478-.869-.07-.861-.071-.274-.83-.274-.83-.298.83-.29.83-.884.039-.885.047.603.43c.337.235.658.47.712.525.063.047-.015.462-.172.908s-.282.838-.282.87.33-.196.728-.502l.729-.556zm-17.548-9.138-.336-1.072-.337-1.065-.344 1.065-.337 1.057-1.128.039-1.127.047.869.626c.478.345.87.697.877.775 0 .087-.125.517-.282.964-.149.446-.274.869-.274.94s.282-.087.626-.338c.353-.25.752-.54.893-.642.22-.148.368-.094 1.112.455.47.352.877.634.908.634.024 0-.11-.478-.297-1.065-.29-.877-.314-1.088-.157-1.175.11-.062.532-.368.947-.68l.76-.565zm17.062.134c.055 0 .439.258.854.571s.783.548.822.51c.031-.032-.07-.463-.22-.956-.156-.486-.281-.932-.281-.987 0-.047.383-.368.853-.697l.861-.603-1.112-.039-1.111-.039-.353-1.073-.36-1.08-.329 1.08-.336 1.073-1.097.04-1.096.038.854.619c.47.345.853.658.853.713 0 .047-.157.54-.344 1.096l-.345 1.01.893-.634c.485-.353.931-.642.994-.642zm-10.202-5.857c.054 0 .407.227.783.5s.68.478.68.447c0-.039-.124-.43-.281-.877-.149-.446-.258-.822-.243-.83.024-.015.345-.243.72-.5l.674-.479-.9-.039-.909-.047-.25-.861-.25-.87-.283.87-.282.861-.916.047-.916.04.486.313c1.049.673 1.01.595.696 1.503-.148.438-.274.83-.274.87 0 .03.306-.173.682-.447s.728-.501.783-.501zm19.567-.9c.352.265.673.461.704.422.032-.031-.039-.36-.164-.72-.117-.368-.22-.713-.22-.775s.33-.353.729-.635l.728-.524-.97-.07-.98-.071-.203-.736c-.118-.4-.243-.728-.282-.728s-.164.328-.282.728l-.203.736-.98.07-.97.07.728.525c.4.282.728.572.728.642 0 .063-.094.384-.211.713-.306.885-.266.908.493.36l.705-.501zm-33.38-.839c.376.259.697.462.72.431.024-.023-.046-.305-.164-.634-.305-.877-.266-1.01.423-1.472.337-.227.619-.462.619-.517s-.384-.117-.854-.14l-.861-.04-.227-.65c-.118-.36-.25-.689-.298-.736-.047-.04-.188.274-.32.69l-.243.766-.932.008c-1.042 0-1.05-.047.11.838l.461.352-.227.682c-.133.375-.235.736-.235.806s.306-.094.674-.368l.681-.501zm24.29-.837c.367.258.696.462.72.438.023-.031-.055-.313-.173-.642-.305-.877-.266-1.01.423-1.472.345-.227.626-.462.626-.517s-.391-.117-.86-.14l-.862-.04-.22-.65c-.125-.36-.258-.689-.305-.728-.039-.047-.188.266-.32.681l-.244.768-.931.007c-1.042 0-1.05-.047.11.838l.461.36-.227.674c-.133.376-.235.736-.235.806s.306-.094.682-.368l.673-.5zm-80.556-1.089.948-.689.375.274c1.097.807 1.84 1.316 1.84 1.26 0-.03-.188-.61-.422-1.291a65.264 65.264 0 0 1-.415-1.26c0-.009.477-.36 1.064-.776l1.065-.752-1.339-.039-1.346-.039-.408-1.284c-.446-1.417-.414-1.425-.916.227l-.305.995-1.37.07-1.363.07 1.065.736c.58.408 1.057.791 1.057.846 0 .063-.18.658-.407 1.323s-.337 1.167-.243 1.112c.087-.055.595-.407 1.12-.783zm96.716-4.142-.336-1.065-.337-1.065-.345 1.065-.344 1.065h-1.089c-.602 0-1.088.047-1.088.11 0 .055.376.352.838.658.454.305.83.626.83.712 0 .078-.118.517-.274.963s-.282.861-.282.932.4-.157.885-.509l.892-.626.822.618c.455.345.862.627.9.627.048 0-.07-.455-.25-1.01l-.328-1.01.461-.392c.251-.22.627-.493.838-.619.212-.133.384-.282.384-.344s-.485-.11-1.088-.11zm-61.598-2.928c.516-.384 1.018-.697 1.12-.697.093 0 .594.313 1.111.697.525.383.979.697 1.026.697.04 0-.11-.54-.337-1.206-.219-.674-.407-1.23-.407-1.253s.486-.4 1.08-.846l1.081-.806-1.394-.07-1.393-.071-.337-1.151c-.188-.634-.384-1.151-.43-1.151-.055 0-.251.517-.431 1.15l-.345 1.152-1.394.07-1.393.07 1.08.807c.595.447 1.089.823 1.089.846s-.188.58-.415 1.253c-.227.665-.376 1.206-.33 1.206s.502-.314 1.019-.697zm67-4.04-.344-1.081c-.368-1.167-.36-1.167-.767.196l-.243.814-2.325.078.869.611c.478.337.9.642.924.673.031.032-.102.517-.29 1.081s-.352 1.041-.352 1.065c0 .031.391-.235.869-.58s.924-.626.987-.626c.07 0 .493.282.947.634.454.345.83.58.83.51s-.125-.494-.282-.94c-.149-.447-.274-.885-.274-.98 0-.1.384-.461.861-.813l.862-.643zm-115.366 2.81c.039-.062.32-.29.618-.5l.556-.376.705.508c.391.282.712.486.712.447 0-.032-.117-.415-.266-.846l-.274-.783.72-.524.729-.533-.916-.04-.916-.038-.18-.69c-.095-.383-.22-.72-.282-.759-.055-.031-.212.282-.345.697l-.235.76-.94.007-.931.008.415.306c.235.172.563.438.744.587l.32.282-.281.798c-.149.447-.22.807-.149.807a.276.276 0 0 0 .196-.118zm110.027-7.415c.524-.383 1.002-.696 1.065-.696s.548.32 1.072.712c.533.392.995.697 1.018.666.032-.032-.117-.595-.328-1.261l-.392-1.198 1.05-.752 1.048-.743-1.315-.071-1.308-.07-.43-1.253-.439-1.245-.415 1.245-.415 1.253-1.284.07-1.284.07.979.729c.54.407.986.814.986.916s-.164.65-.352 1.213a17.845 17.845 0 0 0-.344 1.065c0 .118.195 0 1.088-.65zm13.914.07c.376.26.697.463.72.44s-.047-.314-.164-.643c-.306-.877-.267-1.01.423-1.472.336-.227.618-.462.618-.516s-.384-.118-.853-.134l-.862-.047-.227-.65c-.117-.36-.25-.688-.297-.735-.047-.04-.188.274-.321.689l-.243.767-.932.008c-1.041 0-1.049-.047.11.838l.462.36-.227.673c-.133.376-.235.736-.235.807s.305-.094.673-.368l.681-.502zm-119.486-4.25-.329-1.066-.337-1.072-.344 1.065-.345 1.057-1.127.047-1.128.039.87.626c.477.345.869.697.876.775 0 .086-.125.517-.274.963-.156.447-.281.87-.281.94s.281-.078.634-.337c.344-.25.744-.54.885-.634.219-.157.368-.102 1.111.446.47.353.877.635.909.635.023 0-.11-.478-.298-1.065-.282-.877-.313-1.089-.156-1.175.11-.062.532-.368.955-.681l.751-.564zm-29.402-1.911.337 1.065 2.294.078-.877.618c-.477.345-.869.69-.869.783 0 .087.125.525.282.971.149.439.274.862.274.932s-.407-.164-.9-.524l-.909-.643-.83.643c-.454.344-.861.634-.9.634s.078-.447.266-.995c.392-1.143.407-1.104-.728-1.887l-.775-.532 1.159-.07 1.158-.071.337-1.034.345-1.025zm69.405 2.263c.298-.36.682-.392 1.12-.079.446.321.501.243.266-.376-.133-.36-.11-.422.384-.837l.532-.455h-.65c-.641 0-.657-.015-.853-.595l-.203-.595-.18.595c-.173.58-.196.595-.784.595-.72 0-.767.126-.172.47.439.259.478.494.188 1.237-.117.298.118.321.352.04zm89.45-3.313c.079-.266.157-.524.235-.79-.078.266-.156.524-.235.79zm.29-.963-.031.094.102-.336zm.157-.524-.047.156.094-.328zm-75.388-3.367.306-1.05c.164-.579.352-1.002.407-.939s.227.517.384 1.018l.274.908 1.096.063 1.096.07-.869.619c-.478.337-.87.619-.87.634s.15.486.345 1.05l.314 1.056c-.016.016-.345-.211-.729-.509s-.806-.579-.94-.626c-.148-.047-.532.141-1.025.501-.43.321-.806.556-.838.525-.031-.04.063-.43.22-.877.148-.446.274-.893.274-.995 0-.11-.384-.47-.846-.822l-.854-.626zm75.536 2.85-.062.211.094-.336zm-148.182-3.962-.415-1.268-.415-1.277-.407 1.269-.4 1.268-1.378.04-1.386.039 1.057.751c.58.415 1.057.822 1.05.908 0 .087-.157.65-.345 1.269-.188.61-.345 1.135-.345 1.159s.376-.227.838-.556c.47-.337.956-.681 1.089-.768.195-.148.399-.054 1.268.588.58.415 1.065.736 1.088.712s-.14-.587-.368-1.245l-.407-1.206 1.136-.837 1.127-.846zm54.316 3.07c.047 0 .392.226.768.5s.681.47.681.439-.125-.415-.274-.853l-.266-.791.697-.517.696-.525-.892-.039-.893-.039-.258-.861-.266-.854-.274.854-.275.861-.9.04-.893.038.674.478c.376.266.697.485.72.501.04.024-.29 1.096-.47 1.535-.086.211.055.156.611-.25.407-.283.767-.518.814-.518zm94.25-.517-.329 1.198.33-1.198zm.047-.165-.031.125.094-.375zm.133-.532-.047.188.094-.36zm.478-1.934c-.133.556-.266 1.12-.407 1.675.14-.556.274-1.12.407-1.675zm.047-.18-.04.148.095-.391zm.117-.54-.047.226.086-.399zm.415-1.942zm-141.511-.353.493.376-.094-.352a16.285 16.285 0 0 1-.172-.642c-.063-.235.031-.368.454-.627l.532-.336-.689-.063c-.657-.07-.689-.094-.853-.634-.165-.564-.18-.556-.478.25-.117.33-.211.384-.736.384l-.595.008.47.399c.478.407.501.564.203 1.339-.07.196.024.164.439-.117l.532-.36zm141.55.149-.039.18.086-.415zm.353-1.871c.031-.204.07-.408.102-.611-.032.203-.07.407-.102.61-.094.533-.196 1.065-.298 1.598.102-.533.204-1.065.298-1.597zm-86.122.837c.493.353.908.619.908.595 0-.03-.157-.508-.345-1.057l-.344-1.01.916-.657.916-.658-1.127-.04-1.128-.038-.305-.971c-.173-.533-.353-.971-.4-.971s-.227.438-.399.97l-.313.972-1.128.039-1.12.039.917.658.916.657-.345 1.01c-.188.549-.344 1.026-.344 1.057 0 .024.407-.242.908-.595l.908-.65zm86.263-1.667-.04.211.079-.438zm-167.374-50.34c13.733-30.78 44.615-52.25 80.476-52.25 48.617 0 88.088 39.472 88.088 88.088a88.67 88.67 0 0 1-.893 12.568v.007l-.055.368-.023.141-.008.047-.008.07-.023.18-.04.236-.015.078v.047c-.031.165-.055.337-.086.509l.086-.509.016-.125.062-.415.016-.118.078-.509v-.007l.079-.564-8.386-6.311c-29.598-22.276-62.71-35.924-100.772-41.546-10.798-1.597-45.375-1.942-54.153-.533-1.942.306-3.625.51-4.44.549l-.164.36zm47.41 38.696-.313-1.049c-.18-.571-.352-1.041-.391-1.041s-.212.47-.384 1.041l-.321 1.05h-2.286l1.847 1.284-.32 1.025c-.173.572-.283 1.034-.243 1.034.047 0 .415-.25.822-.556.4-.305.806-.556.885-.556.086 0 .485.25.892.556s.775.556.815.556c.046 0-.063-.462-.243-1.034l-.313-1.025.924-.643.916-.642zm57.911-5.935c-.157-.446-.235-.853-.18-.908.063-.055.384-.29.712-.525l.611-.43-.885-.04-.884-.039-.298-.83-.29-.83-.274.83-.282.83-.86.063-.862.07.697.478c.391.259.704.486.704.501s-.125.384-.274.815-.242.79-.211.79c.039 0 .368-.219.728-.477l.673-.486.69.533c.383.297.712.524.728.509.023-.024-.086-.4-.243-.854zm-97.695-13.726.407-1.292.4-1.292.399 1.284.4 1.285 2.787.086-1.042.76c-.571.414-1.072.774-1.104.798-.039.031.11.587.33 1.245.21.65.36 1.214.328 1.245s-.517-.282-1.08-.697l-1.01-.76-1.034.76c-.564.415-1.057.76-1.089.76s.126-.564.337-1.261l.392-1.253-1.026-.728c-.572-.407-1.034-.783-1.034-.838-.007-.055.588-.102 1.316-.102zm-12.56-4.815-.038.156v-.015zm.142-.548-.055.203.008-.039zm.133-.517-.055.227.016-.07zm.133-.501-.063.227.032-.094zm.14-.493-.062.227.032-.126zm.134-.494-.055.22.04-.15zm112.564-4.071-.43-1.284-.423-1.292-.392 1.284-.391 1.284-1.386.039-1.394.04 1.065.743c.58.407 1.057.814 1.057.916 0 .094-.157.634-.345 1.198-.195.564-.352 1.08-.352 1.151s.391-.164.87-.517c.485-.352.978-.697 1.095-.767.165-.094.478.055 1.253.619.572.415 1.05.736 1.073.72.015-.024-.149-.587-.376-1.253l-.415-1.221 1.135-.83 1.136-.83zm-112.415 3.578-.063.204.047-.165zm.14-.493-.039.14.04-.125zm.204-.666-.055.188.008-.031zm.157-.509-.063.212.016-.063zm.156-.501-.07.22.031-.087zm.157-.493-.07.227.039-.11zm.164-.486-.07.227.04-.14zm.165-.485-.07.22.046-.158zm.164-.478-.07.196.062-.172zm.227-.658-.062.196v-.023zm.188-.508-.086.227.024-.055zm.18-.494-.094.243.032-.078zm.173-.477-.086.242.039-.11zm.18-.478-.094.25.055-.14zm.188-.47-.102.25.07-.172zm.18-.477-.102.266.086-.212zm.18-.455-.11.29.11-.282.156-.391zm.313-.751-.133.313.023-.055zm.188-.454-.125.305.031-.086zm.196-.462-.133.305.054-.117zm.195-.455-.133.306.063-.157zm.204-.461-.149.32.094-.203z" opacity="1" data-original="#003687"></path><path fill="#ffffff" d="M175.596 219.79c.806-.039 2.497-.242 4.44-.548 8.777-1.409 43.354-1.064 54.152.533 38.061 5.622 71.174 19.27 100.772 41.546l8.386 6.31a87.729 87.729 0 0 1-3.125 14.11l-7.101-5.715c-29.88-24.03-64.84-38.916-103.294-43.966-15.268-2.004-53.925-.838-58.81 1.778-.134.07-.267.18-.392.328a86.59 86.59 0 0 1 4.972-14.375zm158.04 53.777c-2.059-.658-3.046-3.163-2.043-5.23 1.229-2.553 4.283-3.446 6.146-1.801.885.775 1.245 1.581 1.23 2.787-.016 1.73-.9 3.14-2.443 3.884-1.05.509-2.028.634-2.89.36zm2.036-1.613c.971-.36 1.738-1.535 1.738-2.654 0-.94-.375-1.559-1.12-1.856-.751-.305-1.048-.282-1.902.11-1.62.759-2.185 2.85-1.073 4.008.603.635 1.378.76 2.357.392zm-10.335-4.604c-.924-.36-2.255-1.44-2.757-2.255-.47-.76-.626-1.73-.375-2.341.094-.227.211-.415.258-.415.055 0 .415.219.814.493.611.423.705.548.619.79-.18.494 0 .964.587 1.536 1.159 1.12 2.467 1.268 2.467.281 0-.477-.212-.814-1.277-2.028-.524-.595-1.08-1.33-1.237-1.628-1.057-2.09 1.104-3.868 3.297-2.71 1.597.846 2.646 1.927 2.912 3 .11.454-.156 1.51-.407 1.605-.102.039-.47-.133-.822-.376-.572-.407-.626-.486-.556-.9.102-.611-.274-1.23-1.065-1.747-.767-.509-1.315-.532-1.62-.07-.314.477-.189.744.939 1.989 1.777 1.957 2.161 3.053 1.449 4.103-.643.947-1.856 1.205-3.226.673zm-8.668-6.006c-1.034-.32-2.435-1.33-3.03-2.184-.486-.69-.658-2.005-.33-2.451.189-.243.228-.235.925.204.626.383.728.5.657.775-.133.517.259 1.229.924 1.691 1.089.744 2.067.822 2.271.18.133-.407-.11-.775-1.425-2.169-1.19-1.245-1.7-2.067-1.707-2.732 0-.196.18-.643.407-.995.548-.869 1.37-1.206 2.341-.955 1.504.376 3.164 1.535 3.657 2.56.329.674.36 1.104.133 1.746-.188.54-.305.548-1.096.024-.564-.376-.619-.462-.58-.9.055-.674-.352-1.199-1.3-1.7-.728-.376-.798-.391-1.158-.188-.235.133-.4.353-.423.58-.04.305.204.634 1.339 1.832 1.597 1.683 1.957 2.357 1.715 3.25-.18.665-.9 1.401-1.559 1.589-.626.18-.743.172-1.761-.157zm-10.5-6.123c-1.73-.994-3.195-1.824-3.258-1.848-.078-.03 3.743-7.007 4.01-7.313.023-.031 6.075 3.39 6.177 3.492.063.063-.626 1.347-.72 1.347-.031 0-3.148-1.754-4.354-2.45l-.587-.345-.36.61c-.196.33-.352.674-.352.752s.908.666 2.028 1.292l2.028 1.151-.345.572c-.196.32-.43.556-.525.532-.101-.023-1.002-.509-2.012-1.08-1.01-.564-1.895-1.034-1.965-1.034-.196 0-1.065 1.684-.932 1.817.063.062 1.182.72 2.49 1.464 1.308.736 2.427 1.394 2.49 1.456.086.086-.548 1.433-.658 1.394-.008-.008-1.433-.822-3.155-1.809zm-7.165-3.923c-.4-.211-.509-.336-.438-.516.4-.963.626-1.77.626-2.248v-.563l-1.534-.768-1.535-.767-.658 1.323c-.36.728-.72 1.324-.806 1.324-.07-.008-.4-.15-.72-.321l-.588-.306 1.871-3.61c1.034-1.988 1.91-3.648 1.95-3.695.047-.047 1.112.438 2.365 1.065 2.458 1.245 3.014 1.699 3.288 2.693.18.69.079 1.26-.376 2.052-.328.571-1.158 1.15-1.644 1.15-.164 0-.22.165-.22.729-.007.752-.633 2.623-.907 2.701-.07.024-.376-.086-.674-.243zm-9.122-4.369-.446-.195.211-.51.212-.5-.533.11c-1.213.258-2.294-.009-3.132-.768-.814-.728-1.127-1.44-1.198-2.717-.062-1.034-.039-1.136.439-2.122.32-.642.728-1.214 1.088-1.52 1.88-1.612 4.722-1.025 5.67 1.175.383.877.524 1.95.258 1.95-.4 0-1.488-.572-1.488-.783 0-.43-.478-1.206-.893-1.464-1.511-.916-3.555.556-3.57 2.568 0 1.331.767 2.192 1.957 2.192.572 0 1.527-.352 1.527-.563 0-.055-.25-.204-.556-.33s-.556-.25-.556-.273c0-.032.094-.282.212-.564l.211-.509.517.227c.29.118.838.337 1.23.486 1.283.485 1.268.383.36 2.419-.447.994-.862 1.824-.932 1.848-.079.016-.337-.055-.588-.157zm10.759-.509c.188-.086.423-.352.517-.58.29-.696-.024-1.04-1.794-1.957l-1.558-.806-.493.979-.493.978 1.503.768c1.597.814 1.785.861 2.318.618zm-23.067-4.572a3.823 3.823 0 0 1-2.451-2.428c-.313-.931-.22-2.458.203-3.28.462-.9 1.206-1.653 2.052-2.06.673-.329.877-.368 1.8-.305.854.055 1.144.133 1.622.47 1.229.845 1.73 1.965 1.62 3.61-.101 1.597-1.002 2.967-2.403 3.672-.643.32-1.927.485-2.443.32zm1.323-1.566c.838-.235 1.323-.642 1.691-1.433 1.198-2.568-1.214-4.777-3.187-2.92-1.401 1.315-1.198 3.609.384 4.313.517.228.438.228 1.112.04zm-9.388-1.277c-.384-.125-.447-.195-.368-.438.14-.462.227-2.647.101-2.819-.054-.086-.814-.376-1.675-.65l-1.574-.485-.446 1.456c-.431 1.41-.454 1.464-.799 1.394-.673-.141-1.151-.376-1.088-.548.039-.094.618-1.856 1.3-3.907.822-2.467 1.307-3.728 1.432-3.728.102 0 1.222.322 2.475.72 2.458.776 3.14 1.168 3.492 2.021.25.595.243 1.77-.008 2.263-.243.462-1.057 1.206-1.464 1.339-.227.07-.259.14-.149.352.204.384.172 1.284-.086 2.31-.243.963-.29.994-1.143.72zm-15.3-4.392c-.971-.243-.987.125.203-4.213.595-2.153 1.12-3.954 1.16-3.993s1.197.211 2.567.571c1.692.447 2.631.76 2.945.995 1.495 1.135 1.284 3.523-.392 4.377-.744.376-1.402.352-3.367-.149-.924-.235-1.699-.407-1.715-.384-.023.04-.148.51-.626 2.31-.157.588-.227.627-.775.486zm16.341-.768c.423-.462.486-.775.266-1.205-.219-.423-.352-.486-2.169-1.073-.65-.204-1.26-.4-1.346-.43-.141-.056-.744 1.44-.744 1.863 0 .188 2.748 1.135 3.359 1.15.203.009.477-.125.634-.305zm-30.075-2.067c-1.652-.29-3.007-.532-3.015-.54-.023-.008 1.23-7.321 1.261-7.36.016-.016 1.363.196 2.991.477l2.976.517-.07.603c-.04.337-.11.65-.158.697s-1.064-.086-2.27-.298c-1.198-.203-2.224-.328-2.279-.266s-.133.345-.18.634c-.094.603-.172.564 1.715.87 2.294.383 2.106.29 2.004.955-.047.32-.125.626-.172.681s-.924-.047-1.942-.227c-1.323-.227-1.879-.282-1.91-.164-.11.336-.353 1.66-.313 1.699.023.023 1.072.219 2.333.446l2.302.4-.04.618c-.023.337-.085.658-.14.705s-1.449-.157-3.093-.447zm19.575-.97c.619-.494.462-1.488-.29-1.786-.415-.164-3.155-.861-3.194-.814-.016.015-.15.477-.306 1.033l-.282 1.01.51.134c3.14.83 3.053.814 3.562.422zm-80.312-.682c-.877-.36-1.668-1.127-2.146-2.106-.509-1.034-.532-2.647-.055-3.696 1.386-3.022 5.184-2.999 6.68.047.524 1.065.555 2.662.07 3.72-.854 1.87-2.803 2.74-4.55 2.035zm46.894-.25c-.47-.07-.47-.126-.188-3.242.11-1.19.188-2.177.164-2.2s-.509 1.159-1.073 2.623l-1.033 2.67-.603-.07c-.329-.04-.626-.095-.666-.134-.031-.031-.29-1.213-.571-2.63-.274-1.41-.548-2.616-.603-2.67-.047-.063-.165.876-.259 2.09-.093 1.206-.21 2.412-.25 2.67-.086.462-.094.47-.705.4-.336-.04-.642-.103-.673-.134-.04-.039.086-1.848.282-4.024s.352-4.01.352-4.08c0-.18 1.95-.047 2.067.149.055.086.345 1.386.634 2.89.298 1.503.564 2.716.588 2.693s.509-1.237 1.08-2.694l1.042-2.646 1.01.03c.548.017 1.025.048 1.049.08.023.023-.102 1.769-.29 3.875s-.344 3.97-.344 4.142c0 .321-.118.353-1.01.212zm-31.352-.736v-.533c0-.72-.376-2.114-.681-2.537-.258-.352-.25-.36.133-.822 1.096-1.315.642-3.304-.924-4.064-.626-.305-.658-.305-3.241-.133-1.433.094-2.647.212-2.694.259-.07.07.337 8.072.415 8.213.047.086 1.402.024 1.449-.07.03-.055.007-.728-.047-1.496-.063-.767-.07-1.44-.016-1.495.055-.047.838-.11 1.754-.133l1.66-.047.266.516c.157.29.345.932.43 1.433l.157.909zm18.205-.15c-1.386-.054-2.85-.101-3.265-.109l-.744-.023.086-2.749c.047-1.519.125-3.406.172-4.189l.087-1.44 2.529.078c1.386.047 2.983.117 3.539.156l1.01.079v1.511l-2.835-.086-2.842-.094-.086.752c-.047.407-.047.79.016.837.054.055 1.12.126 2.364.157s2.295.086 2.326.117.023.36-.024.729l-.07.665-2.341-.094-2.341-.094-.047 1.05-.047 1.049.822.086c.454.047 1.487.086 2.302.086.814.008 1.808.047 2.208.094l.736.086v1.496l-.525-.024c-.29-.016-1.652-.07-3.03-.125zm-14.626-.712c-.047-.407-.094-2.286-.094-4.181v-3.437l1.934-.094c3.03-.157 4.134.227 5.097 1.777.36.587.415.822.47 2.036.086 1.77-.149 2.545-1.042 3.43-.853.845-1.472 1.01-4.103 1.12l-2.176.085zm-17.023.313c1.511-.68 1.738-2.967.415-4.283-.76-.767-1.37-.892-2.247-.47-1.746.846-1.668 3.94.117 4.753.729.33.995.33 1.715 0zm21.815-1.581c1.526-.768 1.69-3.281.297-4.455-.572-.486-1.08-.58-2.482-.462l-1.167.101v2.248c.008 1.245.047 2.396.086 2.568.087.297.157.313 1.37.313 1.05 0 1.387-.055 1.896-.313zm-11.745-2.326c.876-.078 1.237-.18 1.44-.383.384-.384.384-1.097 0-1.48-.336-.33-.908-.36-3.07-.165-.954.086-1.017.11-.939.392.047.172.079.634.086 1.033v.736l.658-.007c.368-.008 1.19-.063 1.825-.126z" opacity="1" data-original="#ffffff"></path><path fill="#00a850" fill-rule="nonzero" d="M333.093 273.17c-2.063-.656-3.044-3.164-2.048-5.23 1.229-2.549 4.28-3.442 6.148-1.797.886.78 1.24 1.582 1.229 2.79-.018 1.727-.904 3.132-2.444 3.88-1.049.51-2.027.63-2.885.358zm2.034-1.61c.971-.363 1.734-1.532 1.734-2.655 0-.936-.375-1.558-1.12-1.854-.748-.3-1.049-.283-1.896.113-1.62.755-2.182 2.85-1.077 4.004.607.632 1.38.763 2.359.392zm-10.33-4.601c-.928-.357-2.256-1.44-2.757-2.257-.47-.755-.625-1.726-.375-2.334.096-.233.216-.42.262-.42.05 0 .413.222.812.498.607.417.706.547.614.79-.18.488 0 .958.59 1.526 1.155 1.123 2.465 1.272 2.465.283 0-.477-.212-.809-1.275-2.02-.526-.597-1.08-1.331-1.236-1.635-1.063-2.083 1.102-3.863 3.291-2.705 1.604.844 2.649 1.925 2.914 2.998.11.452-.16 1.508-.41 1.603-.102.04-.47-.127-.816-.374-.579-.403-.628-.484-.558-.9.096-.608-.279-1.226-1.062-1.748-.77-.509-1.321-.53-1.625-.068-.314.48-.187.746.936 1.985 1.78 1.956 2.165 3.055 1.451 4.107-.642.946-1.85 1.197-3.22.67zm-8.669-6c-1.03-.325-2.426-1.335-3.019-2.182-.487-.696-.664-2.01-.332-2.45.18-.245.226-.238.925.197.618.385.72.508.654.777-.131.515.26 1.232.921 1.688 1.084.745 2.07.826 2.274.183.131-.41-.11-.773-1.43-2.164-1.186-1.25-1.695-2.07-1.698-2.737-.004-.194.176-.643.399-.992.55-.866 1.373-1.201 2.344-.957 1.501.377 3.158 1.54 3.652 2.56.328.678.364 1.105.138 1.748-.188.54-.311.544-1.099.021-.565-.374-.618-.46-.582-.9.06-.671-.346-1.198-1.296-1.696-.728-.377-.795-.388-1.155-.19-.24.134-.4.353-.427.582-.036.304.208.633 1.342 1.826 1.596 1.685 1.952 2.36 1.712 3.252-.18.664-.9 1.402-1.557 1.59-.629.18-.742.17-1.766-.156zm-10.491-6.123c-1.727-.992-3.19-1.819-3.253-1.843-.08-.032 3.736-7.01 4.005-7.314.025-.032 6.07 3.39 6.176 3.496.06.057-.632 1.342-.72 1.342-.036 0-3.147-1.751-4.354-2.454l-.587-.34-.356.608c-.194.332-.353.675-.353.756s.91.66 2.023 1.292l2.027 1.148-.346.576c-.19.314-.427.554-.523.53-.098-.025-1.003-.513-2.012-1.081-1.007-.569-1.89-1.035-1.957-1.035-.201 0-1.07 1.684-.94 1.815.068.067 1.19.724 2.494 1.462s2.422 1.391 2.486 1.459c.092.084-.544 1.433-.653 1.387a673.68 673.68 0 0 1-3.157-1.804zm-7.158-3.916c-.403-.212-.509-.34-.435-.516.396-.964.622-1.776.622-2.253v-.561l-1.533-.767-1.536-.77-.657 1.325c-.363.73-.724 1.324-.801 1.32s-.406-.144-.728-.314l-.582-.307 1.871-3.61c1.028-1.987 1.904-3.647 1.95-3.693.045-.042 1.105.434 2.358 1.067 2.462 1.24 3.016 1.695 3.285 2.69.187.69.084 1.258-.371 2.049-.329.572-1.155 1.147-1.65 1.147-.162 0-.215.17-.218.735-.007.748-.632 2.62-.9 2.698-.079.02-.379-.085-.675-.24zm-9.115-4.376-.448-.194.208-.501.212-.505-.53.113c-1.214.254-2.295-.01-3.132-.767-.812-.73-1.123-1.44-1.2-2.719-.06-1.03-.04-1.137.444-2.119.318-.639.728-1.214 1.081-1.518 1.886-1.614 4.725-1.028 5.675 1.169.378.883.519 1.953.258 1.953-.403 0-1.49-.576-1.49-.788 0-.43-.477-1.204-.898-1.458-1.507-.922-3.552.55-3.563 2.563-.003 1.328.763 2.19 1.957 2.19.572 0 1.525-.346 1.525-.558 0-.06-.25-.208-.554-.332-.307-.12-.558-.247-.558-.275s.095-.283.212-.562l.208-.505.523.223c.286.12.837.342 1.225.487 1.285.487 1.268.381.357 2.422-.442.993-.862 1.819-.933 1.84s-.331-.05-.579-.159zm10.75-.508c.19-.085.423-.346.519-.576.29-.695-.025-1.038-1.794-1.956l-1.557-.809-.495.982-.494.982 1.5.759c1.604.816 1.784.865 2.32.618zm-23.056-4.566a3.832 3.832 0 0 1-2.451-2.423c-.31-.932-.216-2.461.205-3.28.462-.897 1.207-1.65 2.051-2.063.671-.328.88-.363 1.798-.303.854.053 1.144.137 1.624.47 1.222.847 1.727 1.97 1.621 3.612-.106 1.589-1.01 2.963-2.408 3.665-.64.318-1.925.488-2.44.322zm1.324-1.565c.833-.233 1.32-.642 1.688-1.433 1.193-2.568-1.211-4.771-3.185-2.917-1.399 1.313-1.198 3.609.381 4.308.516.23.445.226 1.116.042zm-9.386-1.274c-.382-.124-.445-.202-.371-.442.148-.459.233-2.641.11-2.814-.06-.089-.816-.378-1.682-.647l-1.568-.49-.444 1.458c-.428 1.41-.456 1.459-.802 1.391-.675-.137-1.151-.377-1.088-.547.036-.095.622-1.85 1.303-3.902.82-2.465 1.303-3.73 1.43-3.73.106 0 1.219.326 2.476.721 2.454.777 3.132 1.17 3.489 2.017.25.6.244 1.772-.01 2.267-.24.462-1.057 1.204-1.463 1.335-.233.074-.26.144-.148.353.205.381.17 1.282-.088 2.306-.244.967-.286.996-1.144.724zm-15.288-4.39c-.97-.244-.988.124.205-4.21.594-2.153 1.113-3.95 1.155-3.993s1.197.215 2.564.572c1.698.445 2.634.76 2.941.996 1.501 1.133 1.29 3.517-.385 4.372-.745.377-1.401.35-3.368-.149-.926-.233-1.695-.406-1.71-.381-.024.035-.155.508-.628 2.306-.156.583-.226.628-.774.487zm16.336-.766c.417-.466.484-.774.258-1.211-.215-.417-.353-.484-2.164-1.063-.654-.212-1.258-.406-1.346-.438-.145-.057-.749 1.444-.749 1.86 0 .195 2.755 1.141 3.359 1.156.205.003.48-.128.642-.304zm-30.069-2.07c-1.645-.29-3.001-.533-3.012-.536-.021-.01 1.232-7.32 1.26-7.36.015-.017 1.364.198 2.995.48l2.97.513-.067.607c-.039.336-.11.646-.155.692-.05.05-1.07-.08-2.268-.293-1.2-.208-2.224-.328-2.28-.265-.057.06-.139.343-.18.629-.093.604-.17.561 1.715.872 2.292.382 2.101.29 2.003.957-.05.318-.128.625-.173.678-.05.053-.926-.05-1.946-.23-1.317-.229-1.872-.278-1.907-.165-.106.339-.35 1.663-.314 1.702.02.02 1.073.222 2.337.445l2.3.402-.043.615c-.021.339-.085.657-.138.702s-1.448-.151-3.097-.445zm19.567-.974c.625-.487.463-1.48-.29-1.776-.409-.163-3.15-.866-3.188-.82-.014.014-.152.48-.307 1.035l-.283 1.01.512.134c3.136.826 3.051.816 3.556.417zm-80.267-.678c-.876-.357-1.663-1.127-2.14-2.098-.512-1.038-.533-2.648-.056-3.694 1.384-3.026 5.18-3.005 6.674.04.526 1.066.554 2.662.07 3.721-.854 1.865-2.8 2.734-4.548 2.03zm46.864-.247c-.462-.071-.466-.131-.18-3.242.11-1.187.18-2.175.16-2.2-.022-.021-.506 1.158-1.07 2.624l-1.035 2.662-.597-.063c-.332-.036-.629-.096-.664-.131s-.293-1.218-.572-2.63-.551-2.614-.604-2.674c-.05-.06-.17.88-.265 2.09-.092 1.208-.205 2.412-.25 2.67-.082.463-.089.466-.696.4-.34-.04-.647-.1-.682-.135s.092-1.843.286-4.019.35-4.011.35-4.078c0-.184 1.95-.046 2.07.145.052.088.338 1.387.635 2.892.296 1.5.558 2.712.582 2.687.025-.021.509-1.232 1.081-2.687l1.038-2.645 1.01.028c.555.018 1.028.05 1.053.078.028.024-.106 1.765-.294 3.874-.187 2.104-.342 3.969-.342 4.138 0 .329-.117.35-1.014.216zm-31.33-.738h-1.338l-.155-.908c-.085-.501-.28-1.144-.428-1.43l-.272-.52-1.656.047c-.91.024-1.702.088-1.755.14-.053.05-.046.721.014 1.488s.085 1.44.053 1.497c-.05.095-1.405.159-1.451.07-.078-.14-.484-8.14-.417-8.206.05-.05 1.26-.166 2.695-.262 2.581-.17 2.61-.17 3.241.138 1.568.756 2.017 2.744.922 4.054-.385.466-.388.473-.134.823.307.427.681 1.815.681 2.542zm18.194-.145c-1.38-.053-2.846-.106-3.26-.117l-.748-.017.088-2.751c.05-1.515.127-3.401.173-4.188l.085-1.434 2.528.078c1.388.045 2.98.116 3.539.158l1.01.078v1.508l-2.836-.092-2.836-.088-.088.749c-.05.41-.046.79.01.84.057.053 1.124.12 2.367.155 1.246.032 2.291.089 2.323.12s.025.357-.017.724l-.075.668-2.34-.096-2.339-.095-.049 1.052-.046 1.05.823.088c.452.045 1.487.084 2.299.084s1.808.043 2.21.089l.731.088v1.494l-.522-.025c-.286-.01-1.65-.067-3.03-.12zm-14.616-.717c-.05-.406-.092-2.285-.092-4.174v-3.436l1.928-.099c3.033-.155 4.135.23 5.096 1.783.36.583.413.823.473 2.03.085 1.77-.152 2.547-1.042 3.426-.858.844-1.476 1.014-4.1 1.12l-2.175.092zm-17.018.318c1.515-.685 1.738-2.97.424-4.284-.766-.766-1.374-.893-2.25-.47-1.744.848-1.666 3.942.12 4.75.724.329.99.332 1.706.004zm21.81-1.582c1.522-.767 1.688-3.284.296-4.453-.575-.484-1.08-.58-2.479-.463l-1.169.099.004 2.253c0 1.236.039 2.394.085 2.564.077.296.155.314 1.363.314 1.049 0 1.391-.056 1.9-.314zm-11.738-2.324c.868-.081 1.228-.18 1.437-.385.381-.381.378-1.102-.004-1.483-.332-.328-.904-.36-3.061-.162-.96.088-1.017.113-.943.395.046.166.081.629.081 1.031l.003.735.664-.01a26.257 26.257 0 0 0 1.823-.12z" opacity="1" data-original="#00a850"></path><g fill="#fff"><path d="M255.885 325.105c.118 0 .295.096.392.213.244.293.312.176.148-.256-.12-.311-.086-.399.24-.642l.378-.281-.452-.005c-.362-.003-.468-.072-.538-.353-.049-.192-.137-.348-.197-.348s-.15.156-.197.348c-.07.28-.176.35-.54.353l-.45.005.378.28c.322.241.358.334.244.633-.189.497-.168.546.122.284.14-.127.353-.23.472-.23zM300.412 323.094c.359.263.687.478.73.478.043 0-.043-.355-.192-.789-.15-.434-.272-.8-.272-.815s.314-.24.7-.5l.698-.475-.863-.07-.863-.07-.275-.828-.276-.829-.294.829-.294.828-.884.042-.884.042.605.429c.333.236.653.472.711.525.059.052-.02.461-.174.91-.155.448-.281.839-.281.869 0 .03.327-.195.728-.5l.728-.554zM281.95 316.353c.222-.155.368-.095 1.114.453.472.347.88.631.908.631.027 0-.106-.48-.297-1.065-.284-.876-.312-1.085-.154-1.175.105-.06.532-.365.95-.678l.758-.567h-2.375l-.335-1.067-.335-1.066-.344 1.061-.345 1.061-1.126.04-1.125.04.87.628c.477.345.87.696.872.78s-.122.517-.276.963-.279.867-.279.936c0 .07.284-.081.632-.335s.747-.542.887-.64zM299.922 314.091c.056 0 .442.257.858.57.417.314.784.543.818.51.034-.035-.064-.464-.218-.955s-.28-.935-.282-.988.385-.366.859-.697l.86-.601-1.113-.04-1.113-.04-.355-1.076-.356-1.075-.334 1.075-.335 1.074-1.097.041-1.099.04.854.617c.47.34.854.658.854.708s-.155.545-.344 1.1l-.344 1.009.893-.636c.49-.35.938-.636.994-.636zM289.717 308.235c.056 0 .409.225.784.5.375.275.682.473.682.44 0-.033-.126-.425-.28-.871s-.264-.822-.244-.834.341-.238.715-.5l.68-.478-.907-.04-.908-.041-.248-.866-.249-.865-.282.865-.282.866-.918.04-.917.041.489.314c1.045.672 1.01.594.697 1.501-.153.445-.278.835-.278.868 0 .033.306-.165.681-.44.376-.275.728-.5.785-.5zM309.291 307.327c.355.271.675.464.71.43.035-.036-.038-.361-.162-.724s-.225-.711-.225-.775.329-.35.73-.637l.73-.523-.973-.07-.975-.07-.208-.731c-.115-.403-.241-.732-.281-.732-.041 0-.168.33-.282.732l-.208.732-.974.07-.974.069.73.523c.402.287.73.577.73.645 0 .067-.094.389-.21.714-.31.881-.273.909.494.36l.703-.505zM275.9 306.49c.373.265.696.462.72.438.024-.024-.051-.312-.167-.64-.308-.872-.27-1.007.42-1.469.344-.23.625-.462.625-.516s-.387-.117-.86-.14l-.862-.041-.22-.652c-.122-.36-.257-.688-.301-.73-.044-.043-.189.266-.322.687l-.241.765-.935.005c-1.043.005-1.049-.046.108.84l.467.357-.232.678c-.128.374-.231.736-.231.806s.305-.098.677-.37l.678-.497zM300.197 305.654c.372.264.696.46.72.437s-.052-.312-.168-.64c-.308-.872-.27-1.007.42-1.468.344-.23.625-.463.626-.517 0-.053-.388-.116-.862-.139l-.86-.041-.222-.653c-.121-.359-.257-.687-.3-.73s-.189.267-.322.687l-.241.765-.936.005c-1.041.005-1.048-.046.11.84l.466.357-.232.679c-.127.373-.232.736-.232.805s.305-.097.678-.37l.678-.497zM219.597 304.565l.953-.69.373.275c1.1.807 1.84 1.316 1.84 1.266 0-.03-.188-.613-.419-1.294-.23-.68-.418-1.247-.418-1.259s.48-.36 1.066-.776l1.067-.753-1.343-.04-1.344-.04-.406-1.285c-.447-1.415-.418-1.422-.922.23l-.304.995-1.366.07-1.365.07 1.062.74c.584.405 1.062.786 1.062.844 0 .058-.186.653-.411 1.321-.227.669-.337 1.17-.245 1.114.092-.054.596-.41 1.12-.788zM316.54 303.285c.453.341.86.623.904.624.044.002-.07-.451-.252-1.007l-.332-1.01.461-.393c.254-.216.634-.496.846-.623.21-.126.383-.279.383-.34 0-.06-.491-.109-1.092-.109h-1.093l-.334-1.066-.335-1.066-.346 1.066-.347 1.066h-1.089c-.598 0-1.087.047-1.085.105.002.058.377.355.834.662s.833.627.835.71c.001.084-.123.517-.276.963s-.28.867-.28.936.4-.16.887-.508l.887-.632zM254.739 297.5c.518-.384 1.02-.697 1.117-.697.096 0 .6.313 1.117.697.518.383.977.697 1.02.697s-.106-.546-.33-1.212-.411-1.228-.411-1.25.487-.4 1.082-.844l1.082-.808-1.393-.07-1.395-.069-.34-1.15c-.186-.633-.381-1.15-.432-1.15-.051 0-.246.517-.433 1.15l-.34 1.15-1.394.07-1.394.07 1.082.807c.596.444 1.083.824 1.083.845s-.185.583-.41 1.25c-.226.665-.375 1.21-.332 1.21s.503-.313 1.02-.696zM321.102 295.687c.067 0 .495.286.95.635.455.35.827.58.827.51 0-.069-.126-.49-.28-.936s-.278-.888-.278-.984c0-.096.388-.462.863-.815l.864-.64h-2.274l-.344-1.081c-.37-1.165-.364-1.166-.77.202l-.24.808-1.163.041-1.163.04.87.613c.479.336.896.637.926.668.03.03-.1.516-.293 1.08-.191.562-.348 1.044-.348 1.07s.389-.236.866-.582c.476-.346.92-.63.987-.63zM206.342 296.268c.04-.064.32-.288.623-.498l.551-.38.712.51c.391.28.711.483.711.45s-.121-.414-.27-.845l-.27-.784.722-.528.722-.527-.916-.042-.915-.04-.177-.691c-.098-.38-.224-.72-.281-.755-.057-.035-.212.279-.344.697l-.24.76-.935.005-.935.004.416.31c.229.17.561.434.739.587l.322.279-.277.802c-.153.441-.222.802-.154.802s.156-.053.196-.116zM316.43 288.855c.526-.383 1.006-.697 1.067-.697s.546.322 1.077.715.99.69 1.018.662-.122-.595-.335-1.257l-.387-1.204 1.048-.747 1.048-.748-1.312-.07-1.313-.07-.432-1.249-.433-1.249-.417 1.25-.416 1.248-1.287.07-1.286.07.983.734c.541.404.984.816.984.916 0 .1-.157.644-.35 1.208a23.033 23.033 0 0 0-.348 1.07c0 .115.197-.002 1.09-.652zM330.357 288.923c.372.264.696.461.72.437s-.052-.312-.167-.64c-.309-.872-.27-1.006.42-1.468.343-.23.624-.463.625-.517 0-.053-.387-.116-.861-.139l-.861-.041-.221-.653c-.122-.358-.257-.687-.301-.73s-.188.267-.321.687l-.242.765-.935.005c-1.042.005-1.049-.046.109.84l.466.357-.232.679c-.127.373-.231.736-.231.805s.305-.097.678-.37l.677-.497zM209.9 287.074c.223-.155.368-.095 1.114.453.472.347.88.631.908.631.027 0-.106-.48-.297-1.065-.284-.877-.312-1.085-.154-1.175.105-.06.532-.366.95-.677l.758-.569h-2.375l-.335-1.066-.335-1.066-.344 1.061-.345 1.06-1.126.041-1.125.04.87.628c.477.345.87.696.872.78s-.122.516-.276.962-.279.868-.279.937.284-.081.632-.335.747-.542.887-.64zM180.189 286.684l.83-.638.905.645c.497.354.904.588.904.52s-.125-.49-.279-.935-.28-.883-.28-.97.394-.44.874-.78l.872-.62-1.148-.04-1.148-.041-.334-1.06-.335-1.06-.344 1.03-.343 1.031-1.16.07-1.16.07.78.535c1.134.778 1.12.742.732 1.883-.188.548-.308.997-.268.997s.446-.286.902-.637zM250.825 285.027c.3-.362.681-.388 1.121-.076.45.32.505.244.27-.374-.138-.361-.108-.428.383-.844l.534-.45-.652-.003c-.641-.002-.654-.011-.853-.594l-.201-.593-.182.593c-.177.578-.196.592-.787.592-.717 0-.763.126-.173.474.44.26.476.494.19 1.234-.115.296.115.322.35.04zM267.514 279.234c-.191-.563-.348-1.035-.348-1.049s.393-.3.873-.638l.872-.612-1.099-.07-1.1-.07-.274-.906c-.151-.499-.321-.956-.379-1.016-.057-.06-.241.363-.41.941l-.305 1.05h-2.259l.854.628c.47.345.853.711.853.815 0 .103-.126.553-.28.999-.153.446-.252.838-.22.87.033.033.412-.2.843-.518.49-.362.873-.549 1.023-.5.132.044.554.322.938.62.384.298.714.528.733.51zM191.597 278.58c.2-.142.4-.05 1.277.588.571.416 1.058.738 1.081.714.023-.023-.14-.582-.364-1.244l-.408-1.203 1.132-.843 1.132-.843h-2.785l-.417-1.272-.417-1.271-.405 1.267-.406 1.267-1.38.04-1.378.039 1.055.753c.58.414 1.054.822 1.053.906-.002.085-.159.655-.35 1.269-.19.613-.347 1.135-.347 1.16s.38-.228.844-.558l1.083-.77zM247.006 278.817c.047 0 .392.224.767.5s.682.473.682.44c0-.033-.122-.416-.272-.851l-.273-.791.7-.52.7-.521-.896-.04-.896-.041-.26-.857-.259-.857-.274.857-.275.857-.9.04-.899.04.68.478c.375.263.696.488.716.5.04.025-.287 1.1-.465 1.53-.088.214.052.158.612-.243.4-.287.764-.521.812-.521zM200.956 272.655l.494.375-.096-.348a95.004 95.004 0 0 1-.176-.644c-.062-.233.035-.367.455-.628l.534-.332-.686-.07c-.66-.066-.693-.09-.853-.627-.169-.568-.183-.56-.478.244-.122.335-.215.384-.737.39l-.597.005.471.403c.48.409.502.562.205 1.336-.074.192.018.167.439-.118l.531-.36zM256.763 271.77c.5.356.908.624.908.595 0-.029-.154-.505-.342-1.058l-.343-1.006.915-.657.916-.657-1.125-.04-1.126-.04-.312-.971c-.173-.534-.351-.97-.398-.97-.047 0-.226.436-.398.97l-.313.97-1.125.04-1.125.041.915.657.916.657-.343 1.006c-.188.553-.342 1.029-.342 1.058s.408-.239.907-.595l.908-.646zM221.453 261.25c.407-.308.808-.558.891-.558s.484.25.891.557.775.558.817.558-.066-.464-.241-1.032l-.32-1.03.924-.643.923-.642H223.049l-.318-1.044c-.174-.574-.348-1.044-.387-1.044-.038 0-.213.47-.387 1.044l-.318 1.044H219.35l1.847 1.284-.32 1.031c-.174.568-.283 1.032-.24 1.032s.409-.251.816-.558zM280.988 252.532c-.154-.45-.233-.86-.174-.911.058-.053.378-.29.71-.525l.605-.43-.884-.04-.884-.043-.294-.828-.293-.829-.276.829-.276.828-.862.07-.863.07.699.474c.384.262.7.487.7.502s-.123.38-.273.814c-.15.434-.243.789-.21.789.035 0 .363-.216.73-.48l.669-.478.693.533c.382.293.71.52.73.502s-.092-.398-.247-.847zM183.023 242.224l1.03-.76 1.017.76c.56.418 1.044.733 1.076.701.032-.032-.117-.594-.33-1.25s-.361-1.213-.327-1.239l1.105-.805 1.042-.76-1.396-.039-1.396-.04-.396-1.284-.396-1.286-.407 1.29-.406 1.29h-1.322c-.728 0-1.321.047-1.32.104.003.058.468.433 1.034.835l1.031.73-.392 1.256c-.215.692-.365 1.258-.334 1.258.032 0 .52-.343 1.087-.761zM282.957 230.162c.167-.098.477.056 1.254.621.568.413 1.049.734 1.069.714.02-.02-.148-.584-.375-1.252l-.411-1.216 1.135-.83 1.135-.83h-2.783l-.427-1.29-.427-1.29-.39 1.286-.391 1.285-1.391.04-1.39.039 1.061.74c.584.406 1.062.818 1.062.916s-.157.638-.35 1.202c-.191.563-.349 1.08-.349 1.148 0 .068.393-.164.873-.515s.973-.697 1.095-.768z" fill="#ffffff" opacity="1" data-original="#ffffff"></path></g></g></svg>